HIERARCHY
ROOT hip
{
	OFFSET 0.000000 0.000000 0.000000 
	CHANNELS 6 Xposition Yposition Zposition Xrotation Zrotation Yrotation
	JOINT abdomen
	{
		OFFSET 0.000000 3.402643 0.000000 
		CHANNELS 3 Xrotation Zrotation Yrotation
		JOINT chest
		{
			OFFSET 0.000000 8.438565 -0.680529 
			CHANNELS 3 Xrotation Zrotation Yrotation
			JOINT neck
			{
				OFFSET 0.000000 10.207942 -0.272212 
				CHANNELS 3 Xrotation Zrotation Yrotation
				JOINT head
				{
					OFFSET 0.000000 3.130431 0.000000 
					CHANNELS 3 Xrotation Zrotation Yrotation
					End Site
					{
						OFFSET 0.000000 3.130435 0.000000 
					}
				}
			}
			JOINT lCollar
			{
				OFFSET 3.470700 6.669187 -0.816635 
				CHANNELS 3 Yrotation Zrotation Xrotation
				JOINT lShldr
				{
					OFFSET 3.198488 0.000000 0.000000 
					CHANNELS 3 Zrotation Yrotation Xrotation
					JOINT lForeArm
					{
						OFFSET 10.139888 0.000000 0.000000 
						CHANNELS 3 Yrotation Zrotation Xrotation
						JOINT lHand
						{
							OFFSET 8.370511 0.000000 0.000000 
							CHANNELS 3 Zrotation Yrotation Xrotation
							End Site
							{
								OFFSET 4.083176 0.000000 0.000000 
							}
						}
					}
				}
			}
			JOINT rCollar
			{
				OFFSET -3.470700 6.669187 -0.816635 
				CHANNELS 3 Yrotation Zrotation Xrotation
				JOINT rShldr
				{
					OFFSET -3.198488 0.000000 0.000000 
					CHANNELS 3 Zrotation Yrotation Xrotation
					JOINT rForeArm
					{
						OFFSET -10.139888 0.000000 0.000000 
						CHANNELS 3 Yrotation Zrotation Xrotation
						JOINT rHand
						{
							OFFSET -8.370511 0.000000 0.000000 
							CHANNELS 3 Zrotation Yrotation Xrotation
							End Site
							{
								OFFSET -4.083176 0.000000 0.000000 
							}
						}
					}
				}
			}
		}
	}
	JOINT lThigh
	{
		OFFSET 5.308129 -1.633274 1.361059 
		CHANNELS 3 Xrotation Zrotation Yrotation
		JOINT lShin
		{
			OFFSET -2.041588 -20.007561 0.000000 
			CHANNELS 3 Xrotation Zrotation Yrotation
			JOINT lFoot
			{
				OFFSET 0.000000 -19.190928 -1.224953 
				CHANNELS 3 Xrotation Yrotation Zrotation
				End Site
				{
					OFFSET 0.000000 -2.449906 4.627600 
				}
			}
		}
	}
	JOINT rThigh
	{
		OFFSET -5.308129 -1.633274 1.361059 
		CHANNELS 3 Xrotation Zrotation Yrotation
		JOINT rShin
		{
			OFFSET 2.041588 -20.007561 0.000000 
			CHANNELS 3 Xrotation Zrotation Yrotation
			JOINT rFoot
			{
				OFFSET 0.000000 -19.190928 -1.224953 
				CHANNELS 3 Xrotation Yrotation Zrotation
				End Site
				{
					OFFSET 0.000000 -2.449906 4.627600 
				}
			}
		}
	}
}
MOTION
Frames: 6
Frame Time: 0.033333
3.840594 9.807255 0.440513 -0.722656 -4.052734 91.455078 54.208984 0.371094 3.457091 -12.500000 -4.902344 -4.697266 51.064453 8.115234 2.472081 -79.873047 2.451172 0.361746 14.736329 30.000000 -3.803710 -59.951172 -35.771484 -22.304689 -61.992191 -1.337891 -2.353515 46.269527 27.773438 20.976563 -1.093750 -30.000000 4.741199 64.677742 28.359375 -24.780518 73.544922 0.253906 -2.861370 -71.025391 -41.025391 51.341248 -122.341484 7.889977 0.030431 86.145935 -1.181207 -5.350044 8.787994 7.136898 -0.010993 -122.309738 -1.817842 9.250118 84.474205 0.245288 5.003701 18.972984 -12.379054 4.514804 
3.829751 9.807255 0.440027 -0.722656 -4.052734 91.455078 54.208984 0.371094 3.457091 -12.500000 -4.902344 -4.873046 51.064453 8.115234 2.472081 -79.687500 2.587891 0.107422 15.048828 29.999998 -3.984375 -59.150387 -36.494141 -23.335886 -61.640625 -1.347656 -2.353516 46.015621 28.642578 21.250000 -1.103516 -30.000000 4.741212 63.964844 28.720703 -25.747263 73.203125 0.390625 -2.929750 -71.562500 -41.943363 52.353519 -122.338020 7.880206 0.213867 85.965004 -1.014948 -5.329266 9.030030 7.148545 -0.215338 -122.298172 -1.632603 9.101098 84.294571 0.245042 4.837278 19.186249 -12.396894 4.570432 
3.818920 9.807255 0.439553 -0.722656 -4.052734 91.455078 54.208984 0.371094 3.457091 -12.675782 -4.902344 -4.863280 51.064453 8.115234 2.472081 -79.511719 2.578125 0.117187 15.439453 30.000000 -4.267579 -58.349609 -37.158203 -24.257813 -61.289063 -1.357422 -2.343759 45.878906 29.335939 21.440332 -1.113281 -30.000000 4.721668 63.515621 29.267580 -26.503906 72.675781 0.283203 -2.851563 -71.142578 -42.529293 52.578125 -122.341064 7.714378 0.017522 85.960564 -1.015169 -5.185259 8.923940 7.319775 -0.148318 -122.122017 -1.622868 9.100150 84.288277 0.059848 4.838887 19.198114 -12.784879 4.799097 
3.808089 9.807255 0.439066 -0.722656 -4.052734 91.455078 54.384766 0.371094 3.457091 -12.675782 -4.902344 -4.863280 51.064453 8.115234 2.472081 -79.335938 2.558594 0.126953 15.761719 29.999998 -4.453126 -57.480476 -38.076172 -25.507814 -60.937500 -1.181641 -2.255658 45.576176 30.136717 21.674824 -1.132813 -30.000000 4.697266 62.744141 29.697266 -28.017576 72.324219 0.419922 -2.910156 -70.996094 -43.408203 53.271484 -122.341064 7.714378 0.017522 85.965004 -1.014950 -5.329268 8.786205 7.168150 -0.174481 -122.107185 -1.621328 8.930445 84.114166 0.088987 4.814020 19.444750 -12.548253 4.505889 
3.797257 9.807255 0.438593 -0.722656 -4.052734 91.455078 54.384766 0.371094 3.457091 -12.675782 -4.902344 -4.863280 51.064453 8.115234 2.472081 -79.150391 2.705078 0.049289 16.093750 29.999998 -4.658204 -56.689453 -38.466801 -26.533205 -60.419922 -1.562500 -2.206765 45.595703 30.869143 21.884766 -1.083984 -30.000000 4.785156 62.421879 30.107422 -28.823227 71.972656 0.439453 -2.734375 -71.181641 -44.199219 53.750000 -122.126785 7.694842 0.408229 85.738419 -0.507224 -5.174026 8.943228 7.281663 -0.160757 -122.099876 -1.447697 8.952271 84.106728 -0.106379 4.836157 19.311783 -12.923728 4.566288 
3.786426 9.807255 0.438118 -0.898438 -4.052734 91.455078 54.384766 0.371094 3.457091 -12.851563 -4.902344 -5.019531 51.064453 8.115234 2.472081 -78.974609 2.695313 -0.116728 16.425779 29.999998 -4.873047 -55.917969 -39.257813 -27.431641 -60.068359 -1.572266 -2.196997 45.185547 31.757811 21.953127 -0.957031 -30.000000 5.043947 61.728519 30.595707 -29.467684 71.425781 0.166016 -2.919922 -71.083984 -44.482418 54.326172 -122.306145 7.538123 0.208137 85.585510 -0.692465 -4.981733 8.714990 7.319710 -0.105417 -122.113976 -1.261098 8.982918 83.922173 -0.077023 4.830398 19.466204 -13.114889 4.720938 
